<mxfile host="app.diagrams.net" modified="2024-01-05T20:44:55.286Z" agent="Mozilla/5.0 (X11; Linux x86_64; rv:121.0) Gecko/20100101 Firefox/121.0" etag="8MB3_l5dgIgiv3zQ_cKe" version="21.6.8" type="github">
  <diagram name="Page-1" id="L7L4wJmNF0O-uS7QVdoU">
    <mxGraphModel dx="1434" dy="771" grid="1" gridSize="10" guides="1" tooltips="1" connect="1" arrows="1" fold="1" page="1" pageScale="1" pageWidth="850" pageHeight="1100" math="0" shadow="0">
      <root>
        <mxCell id="0" />
        <mxCell id="1" parent="0" />
        <mxCell id="-hPxuFpVacCTHLu4wbzz-36" value="x" style="rounded=1;whiteSpace=wrap;html=1;fontFamily=Helvetica;fontSize=27;fontColor=default;labelPosition=center;verticalLabelPosition=bottom;align=center;verticalAlign=top;" vertex="1" parent="1">
          <mxGeometry x="430" y="60" width="190" height="200" as="geometry" />
        </mxCell>
        <mxCell id="-hPxuFpVacCTHLu4wbzz-35" value="θ" style="rounded=1;whiteSpace=wrap;html=1;fontFamily=Helvetica;fontSize=27;fontColor=default;labelPosition=center;verticalLabelPosition=bottom;align=center;verticalAlign=top;" vertex="1" parent="1">
          <mxGeometry x="70" y="60" width="140" height="190" as="geometry" />
        </mxCell>
        <mxCell id="-hPxuFpVacCTHLu4wbzz-2" value="ϕ" style="text;html=1;strokeColor=none;fillColor=none;align=center;verticalAlign=middle;whiteSpace=wrap;rounded=0;fontSize=22;" vertex="1" parent="1">
          <mxGeometry x="150" y="70" width="30" height="30" as="geometry" />
        </mxCell>
        <mxCell id="-hPxuFpVacCTHLu4wbzz-23" style="edgeStyle=none;shape=connector;rounded=0;orthogonalLoop=1;jettySize=auto;html=1;exitX=1;exitY=0.5;exitDx=0;exitDy=0;entryX=0;entryY=0;entryDx=0;entryDy=37.5;entryPerimeter=0;labelBackgroundColor=default;strokeColor=default;fontFamily=Helvetica;fontSize=11;fontColor=default;endArrow=classic;" edge="1" parent="1" source="-hPxuFpVacCTHLu4wbzz-3" target="-hPxuFpVacCTHLu4wbzz-9">
          <mxGeometry relative="1" as="geometry" />
        </mxCell>
        <mxCell id="-hPxuFpVacCTHLu4wbzz-3" value="δ" style="text;html=1;strokeColor=none;fillColor=none;align=center;verticalAlign=middle;whiteSpace=wrap;rounded=0;fontSize=22;" vertex="1" parent="1">
          <mxGeometry x="80" y="130" width="30" height="30" as="geometry" />
        </mxCell>
        <mxCell id="-hPxuFpVacCTHLu4wbzz-24" style="edgeStyle=none;shape=connector;rounded=0;orthogonalLoop=1;jettySize=auto;html=1;exitX=1;exitY=0.5;exitDx=0;exitDy=0;entryX=0;entryY=0.274;entryDx=0;entryDy=0;entryPerimeter=0;labelBackgroundColor=default;strokeColor=default;fontFamily=Helvetica;fontSize=11;fontColor=default;endArrow=classic;" edge="1" parent="1" source="-hPxuFpVacCTHLu4wbzz-4" target="-hPxuFpVacCTHLu4wbzz-9">
          <mxGeometry relative="1" as="geometry" />
        </mxCell>
        <mxCell id="-hPxuFpVacCTHLu4wbzz-4" value="σ" style="text;html=1;strokeColor=none;fillColor=none;align=center;verticalAlign=middle;whiteSpace=wrap;rounded=0;fontSize=22;" vertex="1" parent="1">
          <mxGeometry x="150" y="120" width="30" height="30" as="geometry" />
        </mxCell>
        <mxCell id="-hPxuFpVacCTHLu4wbzz-21" style="rounded=0;orthogonalLoop=1;jettySize=auto;html=1;exitX=1;exitY=0.5;exitDx=0;exitDy=0;entryX=-0.012;entryY=0.621;entryDx=0;entryDy=0;entryPerimeter=0;" edge="1" parent="1" source="-hPxuFpVacCTHLu4wbzz-5" target="-hPxuFpVacCTHLu4wbzz-9">
          <mxGeometry relative="1" as="geometry" />
        </mxCell>
        <mxCell id="-hPxuFpVacCTHLu4wbzz-5" value="φ" style="text;html=1;strokeColor=none;fillColor=none;align=center;verticalAlign=middle;whiteSpace=wrap;rounded=0;fontSize=22;" vertex="1" parent="1">
          <mxGeometry x="90" y="185" width="30" height="30" as="geometry" />
        </mxCell>
        <mxCell id="-hPxuFpVacCTHLu4wbzz-22" style="edgeStyle=none;shape=connector;rounded=0;orthogonalLoop=1;jettySize=auto;html=1;exitX=1;exitY=0.5;exitDx=0;exitDy=0;entryX=0;entryY=0.168;entryDx=0;entryDy=0;entryPerimeter=0;labelBackgroundColor=default;strokeColor=default;fontFamily=Helvetica;fontSize=11;fontColor=default;endArrow=classic;" edge="1" parent="1" source="-hPxuFpVacCTHLu4wbzz-6" target="-hPxuFpVacCTHLu4wbzz-9">
          <mxGeometry relative="1" as="geometry" />
        </mxCell>
        <mxCell id="-hPxuFpVacCTHLu4wbzz-6" value="α" style="text;html=1;strokeColor=none;fillColor=none;align=center;verticalAlign=middle;whiteSpace=wrap;rounded=0;fontSize=22;" vertex="1" parent="1">
          <mxGeometry x="100" y="88.8" width="30" height="30" as="geometry" />
        </mxCell>
        <mxCell id="-hPxuFpVacCTHLu4wbzz-31" style="edgeStyle=none;shape=connector;rounded=0;orthogonalLoop=1;jettySize=auto;html=1;exitX=1;exitY=0.5;exitDx=0;exitDy=0;entryX=-0.006;entryY=0.474;entryDx=0;entryDy=0;entryPerimeter=0;labelBackgroundColor=default;strokeColor=default;fontFamily=Helvetica;fontSize=11;fontColor=default;endArrow=classic;" edge="1" parent="1" source="-hPxuFpVacCTHLu4wbzz-7" target="-hPxuFpVacCTHLu4wbzz-9">
          <mxGeometry relative="1" as="geometry" />
        </mxCell>
        <mxCell id="-hPxuFpVacCTHLu4wbzz-7" value="β" style="text;html=1;strokeColor=none;fillColor=none;align=center;verticalAlign=middle;whiteSpace=wrap;rounded=0;fontSize=22;" vertex="1" parent="1">
          <mxGeometry x="125" y="154" width="30" height="30" as="geometry" />
        </mxCell>
        <mxCell id="-hPxuFpVacCTHLu4wbzz-20" style="rounded=0;orthogonalLoop=1;jettySize=auto;html=1;exitX=1;exitY=0.5;exitDx=0;exitDy=0;entryX=0;entryY=0;entryDx=0;entryDy=75;entryPerimeter=0;" edge="1" parent="1" source="-hPxuFpVacCTHLu4wbzz-8" target="-hPxuFpVacCTHLu4wbzz-9">
          <mxGeometry relative="1" as="geometry" />
        </mxCell>
        <mxCell id="-hPxuFpVacCTHLu4wbzz-8" value="γ" style="text;html=1;strokeColor=none;fillColor=none;align=center;verticalAlign=middle;whiteSpace=wrap;rounded=0;fontSize=22;" vertex="1" parent="1">
          <mxGeometry x="140" y="203" width="30" height="30" as="geometry" />
        </mxCell>
        <mxCell id="-hPxuFpVacCTHLu4wbzz-25" style="edgeStyle=none;shape=connector;rounded=0;orthogonalLoop=1;jettySize=auto;html=1;exitX=0;exitY=0;exitDx=160;exitDy=20;exitPerimeter=0;entryX=0;entryY=1;entryDx=0;entryDy=0;labelBackgroundColor=default;strokeColor=default;fontFamily=Helvetica;fontSize=11;fontColor=default;endArrow=classic;" edge="1" parent="1" source="-hPxuFpVacCTHLu4wbzz-9" target="-hPxuFpVacCTHLu4wbzz-29">
          <mxGeometry relative="1" as="geometry">
            <mxPoint x="460" y="120" as="targetPoint" />
          </mxGeometry>
        </mxCell>
        <mxCell id="-hPxuFpVacCTHLu4wbzz-26" style="edgeStyle=none;shape=connector;rounded=0;orthogonalLoop=1;jettySize=auto;html=1;exitX=0;exitY=0;exitDx=160;exitDy=57.5;exitPerimeter=0;labelBackgroundColor=default;strokeColor=default;fontFamily=Helvetica;fontSize=11;fontColor=default;endArrow=classic;entryX=0;entryY=0.5;entryDx=0;entryDy=0;" edge="1" parent="1" source="-hPxuFpVacCTHLu4wbzz-9" target="-hPxuFpVacCTHLu4wbzz-33">
          <mxGeometry relative="1" as="geometry">
            <mxPoint x="490" y="179" as="targetPoint" />
          </mxGeometry>
        </mxCell>
        <mxCell id="-hPxuFpVacCTHLu4wbzz-27" style="edgeStyle=none;shape=connector;rounded=0;orthogonalLoop=1;jettySize=auto;html=1;exitX=1.019;exitY=0.442;exitDx=0;exitDy=0;exitPerimeter=0;entryX=0;entryY=0.75;entryDx=0;entryDy=0;labelBackgroundColor=default;strokeColor=default;fontFamily=Helvetica;fontSize=11;fontColor=default;endArrow=classic;" edge="1" parent="1" source="-hPxuFpVacCTHLu4wbzz-9" target="-hPxuFpVacCTHLu4wbzz-32">
          <mxGeometry relative="1" as="geometry">
            <mxPoint x="554" y="132" as="targetPoint" />
          </mxGeometry>
        </mxCell>
        <mxCell id="-hPxuFpVacCTHLu4wbzz-28" style="edgeStyle=none;shape=connector;rounded=0;orthogonalLoop=1;jettySize=auto;html=1;exitX=1.025;exitY=0.811;exitDx=0;exitDy=0;exitPerimeter=0;entryX=0;entryY=0.25;entryDx=0;entryDy=0;labelBackgroundColor=default;strokeColor=default;fontFamily=Helvetica;fontSize=11;fontColor=default;endArrow=classic;" edge="1" parent="1" source="-hPxuFpVacCTHLu4wbzz-9" target="-hPxuFpVacCTHLu4wbzz-34">
          <mxGeometry relative="1" as="geometry">
            <mxPoint x="452" y="221.03999999999996" as="targetPoint" />
          </mxGeometry>
        </mxCell>
        <mxCell id="-hPxuFpVacCTHLu4wbzz-9" value="&lt;font size=&quot;1&quot;&gt;&lt;b style=&quot;font-size: 23px;&quot;&gt;ABM&lt;/b&gt;&lt;/font&gt;" style="shape=cube;whiteSpace=wrap;html=1;boundedLbl=1;backgroundOutline=1;darkOpacity=0.05;darkOpacity2=0.1;fillColor=#76608a;strokeColor=#432D57;fontColor=#ffffff;" vertex="1" parent="1">
          <mxGeometry x="240" y="120" width="160" height="95" as="geometry" />
        </mxCell>
        <mxCell id="-hPxuFpVacCTHLu4wbzz-18" value="" style="endArrow=classic;html=1;rounded=0;exitX=1;exitY=0.5;exitDx=0;exitDy=0;entryX=-0.006;entryY=0.084;entryDx=0;entryDy=0;entryPerimeter=0;" edge="1" parent="1" source="-hPxuFpVacCTHLu4wbzz-2" target="-hPxuFpVacCTHLu4wbzz-9">
          <mxGeometry width="50" height="50" relative="1" as="geometry">
            <mxPoint x="400" y="280" as="sourcePoint" />
            <mxPoint x="450" y="230" as="targetPoint" />
          </mxGeometry>
        </mxCell>
        <mxCell id="-hPxuFpVacCTHLu4wbzz-29" value="" style="shape=image;imageAspect=0;aspect=fixed;verticalLabelPosition=bottom;verticalAlign=top;fontFamily=Helvetica;fontSize=11;fontColor=default;image=data:image/png,iVBORw0KGgoAAAANSUhEUgAAANEAAABrCAMAAADetZfOAAAA0GVYSWZJSSoACAAAAAoAAAEEAAEAAADRAAAAAQEEAAEAAABrAAAAAgEDAAMAAACGAAAAEgEDAAEAAAABAAAAGgEFAAEAAACMAAAAGwEFAAEAAACUAAAAKAEDAAEAAAACAAAAMQECAA0AAACcAAAAMgECABQAAACqAAAAaYcEAAEAAAC+AAAAAAAAAAgACAAIAEgAAAABAAAASAAAAAEAAABHSU1QIDIuMTAuMzYAADIwMjQ6MDE6MDUgMjA6NDQ6NDQAAQABoAMAAQAAAAEAAAAAAAAAolvpXAAAAYRpQ0NQSUNDIHByb2ZpbGUAAHicfZE9SMNQFIVPU4siFYd2EHHIUF20i4o41ioUoUKoFVp1MHnpHzRpSFJcHAXXgoM/i1UHF2ddHVwFQfAHxNnBSdFFSrwvKbSI8cLjfZx3z+G9+wChWWWa1ZMANN02M6mkmMuvir2vCCCECMYRkZllzElSGr71dU/dVHdxnuXf92cNqAWLAQGROMEM0ybeIJ7ZtA3O+8RRVpZV4nPiCZMuSPzIdcXjN84llwWeGTWzmXniKLFY6mKli1nZ1IiniWOqplO+kPNY5bzFWavWWfue/IXhgr6yzHVaI0hhEUuQIEJBHRVUYSNOu06KhQydJ338w65fIpdCrgoYORZQgwbZ9YP/we/ZWsWpSS8pnARCL47zMQr07gKthuN8HztO6wQIPgNXesdfawKzn6Q3OlrsCBjcBi6uO5qyB1zuAENPhmzKrhSkJRSLwPsZfVMeiNwC/Wve3NrnOH0AsjSr9A1wcAiMlSh73efdfd1z+7enPb8fdu5yqPAf3zMAAA14aVRYdFhNTDpjb20uYWRvYmUueG1wAAAAAAA8P3hwYWNrZXQgYmVnaW49Iu+7vyIgaWQ9Ilc1TTBNcENlaGlIenJlU3pOVGN6a2M5ZCI/Pgo8eDp4bXBtZXRhIHhtbG5zOng9ImFkb2JlOm5zOm1ldGEvIiB4OnhtcHRrPSJYTVAgQ29yZSA0LjQuMC1FeGl2MiI+CiA8cmRmOlJERiB4bWxuczpyZGY9Imh0dHA6Ly93d3cudzMub3JnLzE5OTkvMDIvMjItcmRmLXN5bnRheC1ucyMiPgogIDxyZGY6RGVzY3JpcHRpb24gcmRmOmFib3V0PSIiCiAgICB4bWxuczp4bXBNTT0iaHR0cDovL25zLmFkb2JlLmNvbS94YXAvMS4wL21tLyIKICAgIHhtbG5zOnN0RXZ0PSJodHRwOi8vbnMuYWRvYmUuY29tL3hhcC8xLjAvc1R5cGUvUmVzb3VyY2VFdmVudCMiCiAgICB4bWxuczpkYz0iaHR0cDovL3B1cmwub3JnL2RjL2VsZW1lbnRzLzEuMS8iCiAgICB4bWxuczpHSU1QPSJodHRwOi8vd3d3LmdpbXAub3JnL3htcC8iCiAgICB4bWxuczp0aWZmPSJodHRwOi8vbnMuYWRvYmUuY29tL3RpZmYvMS4wLyIKICAgIHhtbG5zOnhtcD0iaHR0cDovL25zLmFkb2JlLmNvbS94YXAvMS4wLyIKICAgeG1wTU06RG9jdW1lbnRJRD0iZ2ltcDpkb2NpZDpnaW1wOjEzZTk2MGU5LWE0YTktNDU2MC05ZTg1LWM1ZTMxNzljN2M4YSIKICAgeG1wTU06SW5zdGFuY2VJRD0ieG1wLmlpZDpjYmNlNWI3Ni0wOTRhLTRmNzgtYTA3Yi1lYzdmYWI0YjBkMDUiCiAgIHhtcE1NOk9yaWdpbmFsRG9jdW1lbnRJRD0ieG1wLmRpZDphOTY2ZGRjOC0zMzkyLTRhOTktODA5Yi0xZjQxMTZlMTFhMGQiCiAgIGRjOkZvcm1hdD0iaW1hZ2UvcG5nIgogICBHSU1QOkFQST0iMi4wIgogICBHSU1QOlBsYXRmb3JtPSJMaW51eCIKICAgR0lNUDpUaW1lU3RhbXA9IjE3MDQ0ODM4ODQ1OTI4ODEiCiAgIEdJTVA6VmVyc2lvbj0iMi4xMC4zNiIKICAgdGlmZjpPcmllbnRhdGlvbj0iMSIKICAgeG1wOkNyZWF0b3JUb29sPSJHSU1QIDIuMTAiCiAgIHhtcDpNZXRhZGF0YURhdGU9IjIwMjQ6MDE6MDVUMjA6NDQ6NDQrMDE6MDAiCiAgIHhtcDpNb2RpZnlEYXRlPSIyMDI0OjAxOjA1VDIwOjQ0OjQ0KzAxOjAwIj4KICAgPHhtcE1NOkhpc3Rvcnk+CiAgICA8cmRmOlNlcT4KICAgICA8cmRmOmxpCiAgICAgIHN0RXZ0OmFjdGlvbj0ic2F2ZWQiCiAgICAgIHN0RXZ0OmNoYW5nZWQ9Ii8iCiAgICAgIHN0RXZ0Omluc3RhbmNlSUQ9InhtcC5paWQ6ZGU1MDFmNzUtZTlmZi00Njg1LTliOTUtMGVlZGI3MDkwMTU4IgogICAgICBzdEV2dDpzb2Z0d2FyZUFnZW50PSJHaW1wIDIuMTAgKExpbnV4KSIKICAgICAgc3RFdnQ6d2hlbj0iMjAyNC0wMS0wNVQyMDo0NDo0NCswMTowMCIvPgogICAgPC9yZGY6U2VxPgogICA8L3htcE1NOkhpc3Rvcnk+CiAgPC9yZGY6RGVzY3JpcHRpb24+CiA8L3JkZjpSREY+CjwveDp4bXBtZXRhPgogICAgICAgICAgICAgICAgICAgICAgICAgICAgICAgICAgICAgICAgICAgICAgICAgICAgICAgICAgICAgICAgICAgICAgICAgICAgICAgICAgICAgICAgICAgICAgICAgICAgCiAgICAgICAgICAgICAgICAgICAgICAgICAgICAgICAgICAgICAgICAgICAgICAgICAgICAgICAgICAgICAgICAgICAgICAgICAgICAgICAgICAgICAgICAgICAgICAgICAgICAKICAgICAgICAgICAgICAgICAgICAgICAgICAgICAgICAgICAgICAgICAgICAgICAgICAgICAgICAgICAgICAgICAgICAgICAgICAgICAgICAgICAgICAgICAgICAgICAgICAgIAogICAgICAgICAgICAgICAgICAgICAgICAgICAgICAgICAgICAgICAgICAgICAgICAgICAgICAgICAgICAgICAgICAgICAgICAgICAgICAgICAgICAgICAgICAgICAgICAgICAgCiAgICAgICAgICAgICAgICAgICAgICAgICAgICAgICAgICAgICAgICAgICAgICAgICAgICAgICAgICAgICAgICAgICAgICAgICAgICAgICAgICAgICAgICAgICAgICAgICAgICAKICAgICAgICAgICAgICAgICAgICAgICAgICAgICAgICAgICAgICAgICAgICAgICAgICAgICAgICAgICAgICAgICAgICAgICAgICAgICAgICAgICAgICAgICAgICAgICAgICAgIAogICAgICAgICAgICAgICAgICAgICAgICAgICAgICAgICAgICAgICAgICAgICAgICAgICAgICAgICAgICAgICAgICAgICAgICAgICAgICAgICAgICAgICAgICAgICAgICAgICAgCiAgICAgICAgICAgICAgICAgICAgICAgICAgICAgICAgICAgICAgICAgICAgICAgICAgICAgICAgICAgICAgICAgICAgICAgICAgICAgICAgICAgICAgICAgICAgICAgICAgICAKICAgICAgICAgICAgICAgICAgICAgICAgICAgICAgICAgICAgICAgICAgICAgICAgICAgICAgICAgICAgICAgICAgICAgICAgICAgICAgICAgICAgICAgICAgICAgICAgICAgIAogICAgICAgICAgICAgICAgICAgICAgICAgICAgICAgICAgICAgICAgICAgICAgICAgICAgICAgICAgICAgICAgICAgICAgICAgICAgICAgICAgICAgICAgICAgICAgICAgICAgCiAgICAgICAgICAgICAgICAgICAgICAgICAgICAgICAgICAgICAgICAgICAgICAgICAgICAgICAgICAgICAgICAgICAgICAgICAgICAgICAgICAgICAgICAgICAgICAgICAgICAKICAgICAgICAgICAgICAgICAgICAgICAgICAgICAgICAgICAgICAgICAgICAgICAgICAgICAgICAgICAgICAgICAgICAgICAgICAgICAgICAgICAgICAgICAgICAgICAgICAgIAogICAgICAgICAgICAgICAgICAgICAgICAgICAgICAgICAgICAgICAgICAgICAgICAgICAgICAgICAgICAgICAgICAgICAgICAgICAgICAgICAgICAgICAgICAgICAgICAgICAgCiAgICAgICAgICAgICAgICAgICAgICAgICAgICAgICAgICAgICAgICAgICAgICAgICAgICAgICAgICAgICAgICAgICAgICAgICAgICAgICAgICAgICAgICAgICAgICAgICAgICAKICAgICAgICAgICAgICAgICAgICAgICAgICAgICAgICAgICAgICAgICAgICAgICAgICAgICAgICAgICAgICAgICAgICAgICAgICAgICAgICAgICAgICAgICAgICAgICAgICAgIAogICAgICAgICAgICAgICAgICAgICAgICAgICAgICAgICAgICAgICAgICAgICAgICAgICAgICAgICAgICAgICAgICAgICAgICAgICAgICAgICAgICAgICAgICAgICAgICAgICAgCiAgICAgICAgICAgICAgICAgICAgICAgICAgICAgICAgICAgICAgICAgICAgICAgICAgICAgICAgICAgICAgICAgICAgICAgICAgICAgICAgICAgICAgICAgICAgICAgICAgICAKICAgICAgICAgICAgICAgICAgICAgICAgICAgICAgICAgICAgICAgICAgICAgICAgICAgICAgICAgICAgICAgICAgICAgICAgICAgICAgICAgICAgICAgICAgICAgICAgICAgIAogICAgICAgICAgICAgICAgICAgICAgICAgICAgICAgICAgICAgICAgICAgICAgICAgICAgICAgICAgICAgICAgICAgICAgICAgICAgICAgICAgICAgICAgICAgICAgICAgICAgCiAgICAgICAgICAgICAgICAgICAgICAgICAgICAgICAgICAgICAgICAgICAgICAgICAgICAgICAgICAgICAgICAgICAgICAgICAgICAgICAgICAgICAgICAgICAgICAgICAgICAKICAgICAgICAgICAgICAgICAgICAgICAgICAgCjw/eHBhY2tldCBlbmQ9InciPz5E2ywGAAAAkFBMVEX///8hMlodL1gZLFYAGk0AGEwAH08AFksAHU4TKFQAE0oWKlUPJlMbLlcGIlEAHk9weI5VX3v3+PkAEEkADEian67v8PM9SmvT1tzKzdWrr7u1ucTo6u7BxM1YYn2usr5FUXBmboeOlKV6gZXc3uOGjJ4pOV8AAEQzQWWhprRze5CKkKEACEdATGxhaoRMWHa/7IBbAAAAAWJLR0QAiAUdSAAAAAlwSFlzAAALEwAACxMBAJqcGAAAAAd0SU1FB+gBBRMsLCn08KkAAAbASURBVHja7Vtrd6o6EJUkPAIhKspLURSQo7WV///vrjVBA2ir4FqaXva3ck7T7MxkZvYMDAY9evTo0aNHjx5/GN7CTUepu/D+CJ9wbBoEW5gY5jj8A3ycsQmVEtBcOrITCoCliMAwkNzj/gGlCvAptedFqE7oSMmMJGbkn6+Qbdnny/QlL6EYcRLE8A++QfhPKJaWUc59ztx/ZyJvP+F+l0sbFnRukzIWhAZ7oMoaHPbMzbTZ+clsyJwwkZRRcYoLAAqPlJMfwrHU1whvhEcplvoigRMjuhMe7WjDbDKBuVjl0rinqwUUSRltm5dmebpa9kpSRiNWpKrZpSoyT0+skaSMZpRVPReLrGA9nksmXVVeA42ZKPLGvA4ypRWzPq+CLJqEWZhQLpWwrE7nrC5ijxgqKgtVRZVUTnhbrFwFcuUklGF4nRBdS9pfuKJemYUkJTQ3rxOCk5eU3V6cfuXKdum2ljG7SZUIU+Q20YvsFd2O9VTDNgDAInreLhUmZtUw4GuqInW63b+ks5XoQogCxrbFoY5QhZClRAMnC7IX9R7XqOb4jyvopVbtOW5fWiEsaaO99u8xV3F8Ug3Wr9Wre6MZngB55Iy9vNoVNl4brIPPs7MRisv4ix845WxYzav65rVZhBf7CtQLd5fC0gPNu69SWMurkxcXPAHvrxGeNXZcDVjLe/PqZ4UQmMxfnOhTdqfxmUDZQrxTz7jVNARe32hkfQFALokjYRyHd531Rq/GfZK9mpDDShexv+YZ9/dAR9U4ifPXq6CMnbEh+srXqSLDH7//dlHNZOTrDcaTmVpv3ZTdKHj4NQ3V8qq2HLwBrtnIZ1Uz9mc/HnlUm7aij3cgNHCmt+7RUQjQ6UejGnK8LPKYvLOrefVdZg8s1in0Eqv3gi9ZesVQkVtAUzeH29FioVbz6rRLOy6YpaNROnuO7jiwkgEW53xUFW42NUtDRetPAlmwx0OtNjletHcTV9EptixMdcXtHFqcQ2kQUrDAu0ONstVST4aKTUu5AVtrf7yxRs/WBpR2HNcG8KL0oL52d5utdnXHVE1rGrVCGbZPQyO9WkTpnTqVbrXVYQm1dwMY3yTURd4VDW3WQVs5S6Q8A3TV/kxH9Mp6ba0UEtxm/5aGEBEtqXWQd4uzJwMIz4tO2kWZxLzpYApU1RtswXQ9D0IXXI5WTzu4vcX3YKugKECZ4FpNA73CuMkHqIWXpVSzr1DNebW0Lx1W6yLv5nwTxD+FytDn54gel1ghrgVioBnf/bqj8Ymen9ZzYl+vGwpY5xCQ8MHXoUtkGsOaNluybT3+okDyWfM4rGTOfORDko+TS2YJUq1qKG3e0FWgSzJkhhbWcNhcWpk+lmi9VT3noMONFZyZL94oQRbyAbgy6dCXCxkjTUiqMTO9+lDCXtDaRMQ2dz8l4VQtDXWplC7bUTto1jk7WUM4FI8FP7J7YJlNPcaR/JdNHQ3F7AFF/RN0Z7Tjd1F0kCnPSXg9+3HlKMuiGx6nr+/wWTbSB9vmAXd5t5GP1anTaBKcxrgqHsVXV3fisaYeMVzGg4VRi3G2epcI4JcGCce2ZiuZHSLDYti4NIFYxgCsmdt0Xr+pLtbKFqNm0Uc9rvzb7A9Zh3qbD3aogAYZf3VD0L4f9fL+yGqSb4TX4DNFu10aKHfXuQ5PhajUqR4Ps6RT/5Qvooe1k2uwMoxVEvKAZN/mA6f3p+aUx3DjcPLsGPN19U7drA0XZzrfyPy2YIEETcZuEE5+MBDdPrCbqLyx1sRfL2lpeNLttYuoHCKg8TwI4uIXLXBkRX/4Z/2xzs2GXl55vuQz1HHu9VEqaHis6Cm8XwFAatT+P3y4GPSvSPJp16a9A0ArSYaKXRjuRJtSP3r8jzcomd3HKtlnkxIl9i+EzPLeqWdJ1UbTeH41OcN/z3i9bKHXtm8bs+QLGeQH46mLumKkLTtRiX7p5NnIf84UIgNikjz+8L2st9iAiXaj6SG+BTbC3V6jilITEcuCmE62z5t7JaSsZCxDGIhE84/cpFduL2rWGEb7buEgdEfLwyZ+6lDFma+H33Watp7XasxstqaNGDgRf5U0BMm74FxLN+XMbqkhIrCaiozYc7obSIbAXQ1RGQLFcj9CDXEtDZxwz6dA9IrmlfUrk2njux/+aZAh66ePRb13dMAte0fvgjkve7B/8rJwS1r3994FW7uU3vl4nKu27J+fHa0yvdonl/nT1M2wWUMMNwOZsXzmvOk9UJsJKup6IDtiIs5t0WwgP5wkL2fruesM/gYy9v5DNujRo0ePHj169OjRo8f/Cf8B86dlfCRvvi4AAAAASUVORK5CYII=;" vertex="1" parent="1">
          <mxGeometry x="460" y="87.6" width="60.94" height="31.2" as="geometry" />
        </mxCell>
        <mxCell id="-hPxuFpVacCTHLu4wbzz-32" value="" style="shape=image;imageAspect=0;aspect=fixed;verticalLabelPosition=bottom;verticalAlign=top;fontFamily=Helvetica;fontSize=11;fontColor=default;image=data:image/png,iVBORw0KGgoAAAANSUhEUgAAANEAAABrCAMAAADetZfOAAAA0GVYSWZJSSoACAAAAAoAAAEEAAEAAADRAAAAAQEEAAEAAABrAAAAAgEDAAMAAACGAAAAEgEDAAEAAAABAAAAGgEFAAEAAACMAAAAGwEFAAEAAACUAAAAKAEDAAEAAAACAAAAMQECAA0AAACcAAAAMgECABQAAACqAAAAaYcEAAEAAAC+AAAAAAAAAAgACAAIAEgAAAABAAAASAAAAAEAAABHSU1QIDIuMTAuMzYAADIwMjQ6MDE6MDUgMjA6NDQ6NDQAAQABoAMAAQAAAAEAAAAAAAAAolvpXAAAAYRpQ0NQSUNDIHByb2ZpbGUAAHicfZE9SMNQFIVPU4siFYd2EHHIUF20i4o41ioUoUKoFVp1MHnpHzRpSFJcHAXXgoM/i1UHF2ddHVwFQfAHxNnBSdFFSrwvKbSI8cLjfZx3z+G9+wChWWWa1ZMANN02M6mkmMuvir2vCCCECMYRkZllzElSGr71dU/dVHdxnuXf92cNqAWLAQGROMEM0ybeIJ7ZtA3O+8RRVpZV4nPiCZMuSPzIdcXjN84llwWeGTWzmXniKLFY6mKli1nZ1IiniWOqplO+kPNY5bzFWavWWfue/IXhgr6yzHVaI0hhEUuQIEJBHRVUYSNOu06KhQydJ338w65fIpdCrgoYORZQgwbZ9YP/we/ZWsWpSS8pnARCL47zMQr07gKthuN8HztO6wQIPgNXesdfawKzn6Q3OlrsCBjcBi6uO5qyB1zuAENPhmzKrhSkJRSLwPsZfVMeiNwC/Wve3NrnOH0AsjSr9A1wcAiMlSh73efdfd1z+7enPb8fdu5yqPAf3zMAAA14aVRYdFhNTDpjb20uYWRvYmUueG1wAAAAAAA8P3hwYWNrZXQgYmVnaW49Iu+7vyIgaWQ9Ilc1TTBNcENlaGlIenJlU3pOVGN6a2M5ZCI/Pgo8eDp4bXBtZXRhIHhtbG5zOng9ImFkb2JlOm5zOm1ldGEvIiB4OnhtcHRrPSJYTVAgQ29yZSA0LjQuMC1FeGl2MiI+CiA8cmRmOlJERiB4bWxuczpyZGY9Imh0dHA6Ly93d3cudzMub3JnLzE5OTkvMDIvMjItcmRmLXN5bnRheC1ucyMiPgogIDxyZGY6RGVzY3JpcHRpb24gcmRmOmFib3V0PSIiCiAgICB4bWxuczp4bXBNTT0iaHR0cDovL25zLmFkb2JlLmNvbS94YXAvMS4wL21tLyIKICAgIHhtbG5zOnN0RXZ0PSJodHRwOi8vbnMuYWRvYmUuY29tL3hhcC8xLjAvc1R5cGUvUmVzb3VyY2VFdmVudCMiCiAgICB4bWxuczpkYz0iaHR0cDovL3B1cmwub3JnL2RjL2VsZW1lbnRzLzEuMS8iCiAgICB4bWxuczpHSU1QPSJodHRwOi8vd3d3LmdpbXAub3JnL3htcC8iCiAgICB4bWxuczp0aWZmPSJodHRwOi8vbnMuYWRvYmUuY29tL3RpZmYvMS4wLyIKICAgIHhtbG5zOnhtcD0iaHR0cDovL25zLmFkb2JlLmNvbS94YXAvMS4wLyIKICAgeG1wTU06RG9jdW1lbnRJRD0iZ2ltcDpkb2NpZDpnaW1wOjEzZTk2MGU5LWE0YTktNDU2MC05ZTg1LWM1ZTMxNzljN2M4YSIKICAgeG1wTU06SW5zdGFuY2VJRD0ieG1wLmlpZDpjYmNlNWI3Ni0wOTRhLTRmNzgtYTA3Yi1lYzdmYWI0YjBkMDUiCiAgIHhtcE1NOk9yaWdpbmFsRG9jdW1lbnRJRD0ieG1wLmRpZDphOTY2ZGRjOC0zMzkyLTRhOTktODA5Yi0xZjQxMTZlMTFhMGQiCiAgIGRjOkZvcm1hdD0iaW1hZ2UvcG5nIgogICBHSU1QOkFQST0iMi4wIgogICBHSU1QOlBsYXRmb3JtPSJMaW51eCIKICAgR0lNUDpUaW1lU3RhbXA9IjE3MDQ0ODM4ODQ1OTI4ODEiCiAgIEdJTVA6VmVyc2lvbj0iMi4xMC4zNiIKICAgdGlmZjpPcmllbnRhdGlvbj0iMSIKICAgeG1wOkNyZWF0b3JUb29sPSJHSU1QIDIuMTAiCiAgIHhtcDpNZXRhZGF0YURhdGU9IjIwMjQ6MDE6MDVUMjA6NDQ6NDQrMDE6MDAiCiAgIHhtcDpNb2RpZnlEYXRlPSIyMDI0OjAxOjA1VDIwOjQ0OjQ0KzAxOjAwIj4KICAgPHhtcE1NOkhpc3Rvcnk+CiAgICA8cmRmOlNlcT4KICAgICA8cmRmOmxpCiAgICAgIHN0RXZ0OmFjdGlvbj0ic2F2ZWQiCiAgICAgIHN0RXZ0OmNoYW5nZWQ9Ii8iCiAgICAgIHN0RXZ0Omluc3RhbmNlSUQ9InhtcC5paWQ6ZGU1MDFmNzUtZTlmZi00Njg1LTliOTUtMGVlZGI3MDkwMTU4IgogICAgICBzdEV2dDpzb2Z0d2FyZUFnZW50PSJHaW1wIDIuMTAgKExpbnV4KSIKICAgICAgc3RFdnQ6d2hlbj0iMjAyNC0wMS0wNVQyMDo0NDo0NCswMTowMCIvPgogICAgPC9yZGY6U2VxPgogICA8L3htcE1NOkhpc3Rvcnk+CiAgPC9yZGY6RGVzY3JpcHRpb24+CiA8L3JkZjpSREY+CjwveDp4bXBtZXRhPgogICAgICAgICAgICAgICAgICAgICAgICAgICAgICAgICAgICAgICAgICAgICAgICAgICAgICAgICAgICAgICAgICAgICAgICAgICAgICAgICAgICAgICAgICAgICAgICAgICAgCiAgICAgICAgICAgICAgICAgICAgICAgICAgICAgICAgICAgICAgICAgICAgICAgICAgICAgICAgICAgICAgICAgICAgICAgICAgICAgICAgICAgICAgICAgICAgICAgICAgICAKICAgICAgICAgICAgICAgICAgICAgICAgICAgICAgICAgICAgICAgICAgICAgICAgICAgICAgICAgICAgICAgICAgICAgICAgICAgICAgICAgICAgICAgICAgICAgICAgICAgIAogICAgICAgICAgICAgICAgICAgICAgICAgICAgICAgICAgICAgICAgICAgICAgICAgICAgICAgICAgICAgICAgICAgICAgICAgICAgICAgICAgICAgICAgICAgICAgICAgICAgCiAgICAgICAgICAgICAgICAgICAgICAgICAgICAgICAgICAgICAgICAgICAgICAgICAgICAgICAgICAgICAgICAgICAgICAgICAgICAgICAgICAgICAgICAgICAgICAgICAgICAKICAgICAgICAgICAgICAgICAgICAgICAgICAgICAgICAgICAgICAgICAgICAgICAgICAgICAgICAgICAgICAgICAgICAgICAgICAgICAgICAgICAgICAgICAgICAgICAgICAgIAogICAgICAgICAgICAgICAgICAgICAgICAgICAgICAgICAgICAgICAgICAgICAgICAgICAgICAgICAgICAgICAgICAgICAgICAgICAgICAgICAgICAgICAgICAgICAgICAgICAgCiAgICAgICAgICAgICAgICAgICAgICAgICAgICAgICAgICAgICAgICAgICAgICAgICAgICAgICAgICAgICAgICAgICAgICAgICAgICAgICAgICAgICAgICAgICAgICAgICAgICAKICAgICAgICAgICAgICAgICAgICAgICAgICAgICAgICAgICAgICAgICAgICAgICAgICAgICAgICAgICAgICAgICAgICAgICAgICAgICAgICAgICAgICAgICAgICAgICAgICAgIAogICAgICAgICAgICAgICAgICAgICAgICAgICAgICAgICAgICAgICAgICAgICAgICAgICAgICAgICAgICAgICAgICAgICAgICAgICAgICAgICAgICAgICAgICAgICAgICAgICAgCiAgICAgICAgICAgICAgICAgICAgICAgICAgICAgICAgICAgICAgICAgICAgICAgICAgICAgICAgICAgICAgICAgICAgICAgICAgICAgICAgICAgICAgICAgICAgICAgICAgICAKICAgICAgICAgICAgICAgICAgICAgICAgICAgICAgICAgICAgICAgICAgICAgICAgICAgICAgICAgICAgICAgICAgICAgICAgICAgICAgICAgICAgICAgICAgICAgICAgICAgIAogICAgICAgICAgICAgICAgICAgICAgICAgICAgICAgICAgICAgICAgICAgICAgICAgICAgICAgICAgICAgICAgICAgICAgICAgICAgICAgICAgICAgICAgICAgICAgICAgICAgCiAgICAgICAgICAgICAgICAgICAgICAgICAgICAgICAgICAgICAgICAgICAgICAgICAgICAgICAgICAgICAgICAgICAgICAgICAgICAgICAgICAgICAgICAgICAgICAgICAgICAKICAgICAgICAgICAgICAgICAgICAgICAgICAgICAgICAgICAgICAgICAgICAgICAgICAgICAgICAgICAgICAgICAgICAgICAgICAgICAgICAgICAgICAgICAgICAgICAgICAgIAogICAgICAgICAgICAgICAgICAgICAgICAgICAgICAgICAgICAgICAgICAgICAgICAgICAgICAgICAgICAgICAgICAgICAgICAgICAgICAgICAgICAgICAgICAgICAgICAgICAgCiAgICAgICAgICAgICAgICAgICAgICAgICAgICAgICAgICAgICAgICAgICAgICAgICAgICAgICAgICAgICAgICAgICAgICAgICAgICAgICAgICAgICAgICAgICAgICAgICAgICAKICAgICAgICAgICAgICAgICAgICAgICAgICAgICAgICAgICAgICAgICAgICAgICAgICAgICAgICAgICAgICAgICAgICAgICAgICAgICAgICAgICAgICAgICAgICAgICAgICAgIAogICAgICAgICAgICAgICAgICAgICAgICAgICAgICAgICAgICAgICAgICAgICAgICAgICAgICAgICAgICAgICAgICAgICAgICAgICAgICAgICAgICAgICAgICAgICAgICAgICAgCiAgICAgICAgICAgICAgICAgICAgICAgICAgICAgICAgICAgICAgICAgICAgICAgICAgICAgICAgICAgICAgICAgICAgICAgICAgICAgICAgICAgICAgICAgICAgICAgICAgICAKICAgICAgICAgICAgICAgICAgICAgICAgICAgCjw/eHBhY2tldCBlbmQ9InciPz5E2ywGAAAAkFBMVEX///8hMlodL1gZLFYAGk0AGEwAH08AFksAHU4TKFQAE0oWKlUPJlMbLlcGIlEAHk9weI5VX3v3+PkAEEkADEian67v8PM9SmvT1tzKzdWrr7u1ucTo6u7BxM1YYn2usr5FUXBmboeOlKV6gZXc3uOGjJ4pOV8AAEQzQWWhprRze5CKkKEACEdATGxhaoRMWHa/7IBbAAAAAWJLR0QAiAUdSAAAAAlwSFlzAAALEwAACxMBAJqcGAAAAAd0SU1FB+gBBRMsLCn08KkAAAbASURBVHja7Vtrd6o6EJUkPAIhKspLURSQo7WV///vrjVBA2ir4FqaXva3ck7T7MxkZvYMDAY9evTo0aNHjx5/GN7CTUepu/D+CJ9wbBoEW5gY5jj8A3ycsQmVEtBcOrITCoCliMAwkNzj/gGlCvAptedFqE7oSMmMJGbkn6+Qbdnny/QlL6EYcRLE8A++QfhPKJaWUc59ztx/ZyJvP+F+l0sbFnRukzIWhAZ7oMoaHPbMzbTZ+clsyJwwkZRRcYoLAAqPlJMfwrHU1whvhEcplvoigRMjuhMe7WjDbDKBuVjl0rinqwUUSRltm5dmebpa9kpSRiNWpKrZpSoyT0+skaSMZpRVPReLrGA9nksmXVVeA42ZKPLGvA4ypRWzPq+CLJqEWZhQLpWwrE7nrC5ijxgqKgtVRZVUTnhbrFwFcuUklGF4nRBdS9pfuKJemYUkJTQ3rxOCk5eU3V6cfuXKdum2ljG7SZUIU+Q20YvsFd2O9VTDNgDAInreLhUmZtUw4GuqInW63b+ks5XoQogCxrbFoY5QhZClRAMnC7IX9R7XqOb4jyvopVbtOW5fWiEsaaO99u8xV3F8Ug3Wr9Wre6MZngB55Iy9vNoVNl4brIPPs7MRisv4ix845WxYzav65rVZhBf7CtQLd5fC0gPNu69SWMurkxcXPAHvrxGeNXZcDVjLe/PqZ4UQmMxfnOhTdqfxmUDZQrxTz7jVNARe32hkfQFALokjYRyHd531Rq/GfZK9mpDDShexv+YZ9/dAR9U4ifPXq6CMnbEh+srXqSLDH7//dlHNZOTrDcaTmVpv3ZTdKHj4NQ3V8qq2HLwBrtnIZ1Uz9mc/HnlUm7aij3cgNHCmt+7RUQjQ6UejGnK8LPKYvLOrefVdZg8s1in0Eqv3gi9ZesVQkVtAUzeH29FioVbz6rRLOy6YpaNROnuO7jiwkgEW53xUFW42NUtDRetPAlmwx0OtNjletHcTV9EptixMdcXtHFqcQ2kQUrDAu0ONstVST4aKTUu5AVtrf7yxRs/WBpR2HNcG8KL0oL52d5utdnXHVE1rGrVCGbZPQyO9WkTpnTqVbrXVYQm1dwMY3yTURd4VDW3WQVs5S6Q8A3TV/kxH9Mp6ba0UEtxm/5aGEBEtqXWQd4uzJwMIz4tO2kWZxLzpYApU1RtswXQ9D0IXXI5WTzu4vcX3YKugKECZ4FpNA73CuMkHqIWXpVSzr1DNebW0Lx1W6yLv5nwTxD+FytDn54gel1ghrgVioBnf/bqj8Ymen9ZzYl+vGwpY5xCQ8MHXoUtkGsOaNluybT3+okDyWfM4rGTOfORDko+TS2YJUq1qKG3e0FWgSzJkhhbWcNhcWpk+lmi9VT3noMONFZyZL94oQRbyAbgy6dCXCxkjTUiqMTO9+lDCXtDaRMQ2dz8l4VQtDXWplC7bUTto1jk7WUM4FI8FP7J7YJlNPcaR/JdNHQ3F7AFF/RN0Z7Tjd1F0kCnPSXg9+3HlKMuiGx6nr+/wWTbSB9vmAXd5t5GP1anTaBKcxrgqHsVXV3fisaYeMVzGg4VRi3G2epcI4JcGCce2ZiuZHSLDYti4NIFYxgCsmdt0Xr+pLtbKFqNm0Uc9rvzb7A9Zh3qbD3aogAYZf3VD0L4f9fL+yGqSb4TX4DNFu10aKHfXuQ5PhajUqR4Ps6RT/5Qvooe1k2uwMoxVEvKAZN/mA6f3p+aUx3DjcPLsGPN19U7drA0XZzrfyPy2YIEETcZuEE5+MBDdPrCbqLyx1sRfL2lpeNLttYuoHCKg8TwI4uIXLXBkRX/4Z/2xzs2GXl55vuQz1HHu9VEqaHis6Cm8XwFAatT+P3y4GPSvSPJp16a9A0ArSYaKXRjuRJtSP3r8jzcomd3HKtlnkxIl9i+EzPLeqWdJ1UbTeH41OcN/z3i9bKHXtm8bs+QLGeQH46mLumKkLTtRiX7p5NnIf84UIgNikjz+8L2st9iAiXaj6SG+BTbC3V6jilITEcuCmE62z5t7JaSsZCxDGIhE84/cpFduL2rWGEb7buEgdEfLwyZ+6lDFma+H33Watp7XasxstqaNGDgRf5U0BMm74FxLN+XMbqkhIrCaiozYc7obSIbAXQ1RGQLFcj9CDXEtDZxwz6dA9IrmlfUrk2njux/+aZAh66ePRb13dMAte0fvgjkve7B/8rJwS1r3994FW7uU3vl4nKu27J+fHa0yvdonl/nT1M2wWUMMNwOZsXzmvOk9UJsJKup6IDtiIs5t0WwgP5wkL2fruesM/gYy9v5DNujRo0ePHj169OjRo8f/Cf8B86dlfCRvvi4AAAAASUVORK5CYII=;" vertex="1" parent="1">
          <mxGeometry x="550" y="118.8" width="60.94" height="31.2" as="geometry" />
        </mxCell>
        <mxCell id="-hPxuFpVacCTHLu4wbzz-33" value="" style="shape=image;imageAspect=0;aspect=fixed;verticalLabelPosition=bottom;verticalAlign=top;fontFamily=Helvetica;fontSize=11;fontColor=default;image=data:image/png,iVBORw0KGgoAAAANSUhEUgAAANEAAABrCAMAAADetZfOAAAA0GVYSWZJSSoACAAAAAoAAAEEAAEAAADRAAAAAQEEAAEAAABrAAAAAgEDAAMAAACGAAAAEgEDAAEAAAABAAAAGgEFAAEAAACMAAAAGwEFAAEAAACUAAAAKAEDAAEAAAACAAAAMQECAA0AAACcAAAAMgECABQAAACqAAAAaYcEAAEAAAC+AAAAAAAAAAgACAAIAEgAAAABAAAASAAAAAEAAABHSU1QIDIuMTAuMzYAADIwMjQ6MDE6MDUgMjA6NDQ6NDQAAQABoAMAAQAAAAEAAAAAAAAAolvpXAAAAYRpQ0NQSUNDIHByb2ZpbGUAAHicfZE9SMNQFIVPU4siFYd2EHHIUF20i4o41ioUoUKoFVp1MHnpHzRpSFJcHAXXgoM/i1UHF2ddHVwFQfAHxNnBSdFFSrwvKbSI8cLjfZx3z+G9+wChWWWa1ZMANN02M6mkmMuvir2vCCCECMYRkZllzElSGr71dU/dVHdxnuXf92cNqAWLAQGROMEM0ybeIJ7ZtA3O+8RRVpZV4nPiCZMuSPzIdcXjN84llwWeGTWzmXniKLFY6mKli1nZ1IiniWOqplO+kPNY5bzFWavWWfue/IXhgr6yzHVaI0hhEUuQIEJBHRVUYSNOu06KhQydJ338w65fIpdCrgoYORZQgwbZ9YP/we/ZWsWpSS8pnARCL47zMQr07gKthuN8HztO6wQIPgNXesdfawKzn6Q3OlrsCBjcBi6uO5qyB1zuAENPhmzKrhSkJRSLwPsZfVMeiNwC/Wve3NrnOH0AsjSr9A1wcAiMlSh73efdfd1z+7enPb8fdu5yqPAf3zMAAA14aVRYdFhNTDpjb20uYWRvYmUueG1wAAAAAAA8P3hwYWNrZXQgYmVnaW49Iu+7vyIgaWQ9Ilc1TTBNcENlaGlIenJlU3pOVGN6a2M5ZCI/Pgo8eDp4bXBtZXRhIHhtbG5zOng9ImFkb2JlOm5zOm1ldGEvIiB4OnhtcHRrPSJYTVAgQ29yZSA0LjQuMC1FeGl2MiI+CiA8cmRmOlJERiB4bWxuczpyZGY9Imh0dHA6Ly93d3cudzMub3JnLzE5OTkvMDIvMjItcmRmLXN5bnRheC1ucyMiPgogIDxyZGY6RGVzY3JpcHRpb24gcmRmOmFib3V0PSIiCiAgICB4bWxuczp4bXBNTT0iaHR0cDovL25zLmFkb2JlLmNvbS94YXAvMS4wL21tLyIKICAgIHhtbG5zOnN0RXZ0PSJodHRwOi8vbnMuYWRvYmUuY29tL3hhcC8xLjAvc1R5cGUvUmVzb3VyY2VFdmVudCMiCiAgICB4bWxuczpkYz0iaHR0cDovL3B1cmwub3JnL2RjL2VsZW1lbnRzLzEuMS8iCiAgICB4bWxuczpHSU1QPSJodHRwOi8vd3d3LmdpbXAub3JnL3htcC8iCiAgICB4bWxuczp0aWZmPSJodHRwOi8vbnMuYWRvYmUuY29tL3RpZmYvMS4wLyIKICAgIHhtbG5zOnhtcD0iaHR0cDovL25zLmFkb2JlLmNvbS94YXAvMS4wLyIKICAgeG1wTU06RG9jdW1lbnRJRD0iZ2ltcDpkb2NpZDpnaW1wOjEzZTk2MGU5LWE0YTktNDU2MC05ZTg1LWM1ZTMxNzljN2M4YSIKICAgeG1wTU06SW5zdGFuY2VJRD0ieG1wLmlpZDpjYmNlNWI3Ni0wOTRhLTRmNzgtYTA3Yi1lYzdmYWI0YjBkMDUiCiAgIHhtcE1NOk9yaWdpbmFsRG9jdW1lbnRJRD0ieG1wLmRpZDphOTY2ZGRjOC0zMzkyLTRhOTktODA5Yi0xZjQxMTZlMTFhMGQiCiAgIGRjOkZvcm1hdD0iaW1hZ2UvcG5nIgogICBHSU1QOkFQST0iMi4wIgogICBHSU1QOlBsYXRmb3JtPSJMaW51eCIKICAgR0lNUDpUaW1lU3RhbXA9IjE3MDQ0ODM4ODQ1OTI4ODEiCiAgIEdJTVA6VmVyc2lvbj0iMi4xMC4zNiIKICAgdGlmZjpPcmllbnRhdGlvbj0iMSIKICAgeG1wOkNyZWF0b3JUb29sPSJHSU1QIDIuMTAiCiAgIHhtcDpNZXRhZGF0YURhdGU9IjIwMjQ6MDE6MDVUMjA6NDQ6NDQrMDE6MDAiCiAgIHhtcDpNb2RpZnlEYXRlPSIyMDI0OjAxOjA1VDIwOjQ0OjQ0KzAxOjAwIj4KICAgPHhtcE1NOkhpc3Rvcnk+CiAgICA8cmRmOlNlcT4KICAgICA8cmRmOmxpCiAgICAgIHN0RXZ0OmFjdGlvbj0ic2F2ZWQiCiAgICAgIHN0RXZ0OmNoYW5nZWQ9Ii8iCiAgICAgIHN0RXZ0Omluc3RhbmNlSUQ9InhtcC5paWQ6ZGU1MDFmNzUtZTlmZi00Njg1LTliOTUtMGVlZGI3MDkwMTU4IgogICAgICBzdEV2dDpzb2Z0d2FyZUFnZW50PSJHaW1wIDIuMTAgKExpbnV4KSIKICAgICAgc3RFdnQ6d2hlbj0iMjAyNC0wMS0wNVQyMDo0NDo0NCswMTowMCIvPgogICAgPC9yZGY6U2VxPgogICA8L3htcE1NOkhpc3Rvcnk+CiAgPC9yZGY6RGVzY3JpcHRpb24+CiA8L3JkZjpSREY+CjwveDp4bXBtZXRhPgogICAgICAgICAgICAgICAgICAgICAgICAgICAgICAgICAgICAgICAgICAgICAgICAgICAgICAgICAgICAgICAgICAgICAgICAgICAgICAgICAgICAgICAgICAgICAgICAgICAgCiAgICAgICAgICAgICAgICAgICAgICAgICAgICAgICAgICAgICAgICAgICAgICAgICAgICAgICAgICAgICAgICAgICAgICAgICAgICAgICAgICAgICAgICAgICAgICAgICAgICAKICAgICAgICAgICAgICAgICAgICAgICAgICAgICAgICAgICAgICAgICAgICAgICAgICAgICAgICAgICAgICAgICAgICAgICAgICAgICAgICAgICAgICAgICAgICAgICAgICAgIAogICAgICAgICAgICAgICAgICAgICAgICAgICAgICAgICAgICAgICAgICAgICAgICAgICAgICAgICAgICAgICAgICAgICAgICAgICAgICAgICAgICAgICAgICAgICAgICAgICAgCiAgICAgICAgICAgICAgICAgICAgICAgICAgICAgICAgICAgICAgICAgICAgICAgICAgICAgICAgICAgICAgICAgICAgICAgICAgICAgICAgICAgICAgICAgICAgICAgICAgICAKICAgICAgICAgICAgICAgICAgICAgICAgICAgICAgICAgICAgICAgICAgICAgICAgICAgICAgICAgICAgICAgICAgICAgICAgICAgICAgICAgICAgICAgICAgICAgICAgICAgIAogICAgICAgICAgICAgICAgICAgICAgICAgICAgICAgICAgICAgICAgICAgICAgICAgICAgICAgICAgICAgICAgICAgICAgICAgICAgICAgICAgICAgICAgICAgICAgICAgICAgCiAgICAgICAgICAgICAgICAgICAgICAgICAgICAgICAgICAgICAgICAgICAgICAgICAgICAgICAgICAgICAgICAgICAgICAgICAgICAgICAgICAgICAgICAgICAgICAgICAgICAKICAgICAgICAgICAgICAgICAgICAgICAgICAgICAgICAgICAgICAgICAgICAgICAgICAgICAgICAgICAgICAgICAgICAgICAgICAgICAgICAgICAgICAgICAgICAgICAgICAgIAogICAgICAgICAgICAgICAgICAgICAgICAgICAgICAgICAgICAgICAgICAgICAgICAgICAgICAgICAgICAgICAgICAgICAgICAgICAgICAgICAgICAgICAgICAgICAgICAgICAgCiAgICAgICAgICAgICAgICAgICAgICAgICAgICAgICAgICAgICAgICAgICAgICAgICAgICAgICAgICAgICAgICAgICAgICAgICAgICAgICAgICAgICAgICAgICAgICAgICAgICAKICAgICAgICAgICAgICAgICAgICAgICAgICAgICAgICAgICAgICAgICAgICAgICAgICAgICAgICAgICAgICAgICAgICAgICAgICAgICAgICAgICAgICAgICAgICAgICAgICAgIAogICAgICAgICAgICAgICAgICAgICAgICAgICAgICAgICAgICAgICAgICAgICAgICAgICAgICAgICAgICAgICAgICAgICAgICAgICAgICAgICAgICAgICAgICAgICAgICAgICAgCiAgICAgICAgICAgICAgICAgICAgICAgICAgICAgICAgICAgICAgICAgICAgICAgICAgICAgICAgICAgICAgICAgICAgICAgICAgICAgICAgICAgICAgICAgICAgICAgICAgICAKICAgICAgICAgICAgICAgICAgICAgICAgICAgICAgICAgICAgICAgICAgICAgICAgICAgICAgICAgICAgICAgICAgICAgICAgICAgICAgICAgICAgICAgICAgICAgICAgICAgIAogICAgICAgICAgICAgICAgICAgICAgICAgICAgICAgICAgICAgICAgICAgICAgICAgICAgICAgICAgICAgICAgICAgICAgICAgICAgICAgICAgICAgICAgICAgICAgICAgICAgCiAgICAgICAgICAgICAgICAgICAgICAgICAgICAgICAgICAgICAgICAgICAgICAgICAgICAgICAgICAgICAgICAgICAgICAgICAgICAgICAgICAgICAgICAgICAgICAgICAgICAKICAgICAgICAgICAgICAgICAgICAgICAgICAgICAgICAgICAgICAgICAgICAgICAgICAgICAgICAgICAgICAgICAgICAgICAgICAgICAgICAgICAgICAgICAgICAgICAgICAgIAogICAgICAgICAgICAgICAgICAgICAgICAgICAgICAgICAgICAgICAgICAgICAgICAgICAgICAgICAgICAgICAgICAgICAgICAgICAgICAgICAgICAgICAgICAgICAgICAgICAgCiAgICAgICAgICAgICAgICAgICAgICAgICAgICAgICAgICAgICAgICAgICAgICAgICAgICAgICAgICAgICAgICAgICAgICAgICAgICAgICAgICAgICAgICAgICAgICAgICAgICAKICAgICAgICAgICAgICAgICAgICAgICAgICAgCjw/eHBhY2tldCBlbmQ9InciPz5E2ywGAAAAkFBMVEX///8hMlodL1gZLFYAGk0AGEwAH08AFksAHU4TKFQAE0oWKlUPJlMbLlcGIlEAHk9weI5VX3v3+PkAEEkADEian67v8PM9SmvT1tzKzdWrr7u1ucTo6u7BxM1YYn2usr5FUXBmboeOlKV6gZXc3uOGjJ4pOV8AAEQzQWWhprRze5CKkKEACEdATGxhaoRMWHa/7IBbAAAAAWJLR0QAiAUdSAAAAAlwSFlzAAALEwAACxMBAJqcGAAAAAd0SU1FB+gBBRMsLCn08KkAAAbASURBVHja7Vtrd6o6EJUkPAIhKspLURSQo7WV///vrjVBA2ir4FqaXva3ck7T7MxkZvYMDAY9evTo0aNHjx5/GN7CTUepu/D+CJ9wbBoEW5gY5jj8A3ycsQmVEtBcOrITCoCliMAwkNzj/gGlCvAptedFqE7oSMmMJGbkn6+Qbdnny/QlL6EYcRLE8A++QfhPKJaWUc59ztx/ZyJvP+F+l0sbFnRukzIWhAZ7oMoaHPbMzbTZ+clsyJwwkZRRcYoLAAqPlJMfwrHU1whvhEcplvoigRMjuhMe7WjDbDKBuVjl0rinqwUUSRltm5dmebpa9kpSRiNWpKrZpSoyT0+skaSMZpRVPReLrGA9nksmXVVeA42ZKPLGvA4ypRWzPq+CLJqEWZhQLpWwrE7nrC5ijxgqKgtVRZVUTnhbrFwFcuUklGF4nRBdS9pfuKJemYUkJTQ3rxOCk5eU3V6cfuXKdum2ljG7SZUIU+Q20YvsFd2O9VTDNgDAInreLhUmZtUw4GuqInW63b+ks5XoQogCxrbFoY5QhZClRAMnC7IX9R7XqOb4jyvopVbtOW5fWiEsaaO99u8xV3F8Ug3Wr9Wre6MZngB55Iy9vNoVNl4brIPPs7MRisv4ix845WxYzav65rVZhBf7CtQLd5fC0gPNu69SWMurkxcXPAHvrxGeNXZcDVjLe/PqZ4UQmMxfnOhTdqfxmUDZQrxTz7jVNARe32hkfQFALokjYRyHd531Rq/GfZK9mpDDShexv+YZ9/dAR9U4ifPXq6CMnbEh+srXqSLDH7//dlHNZOTrDcaTmVpv3ZTdKHj4NQ3V8qq2HLwBrtnIZ1Uz9mc/HnlUm7aij3cgNHCmt+7RUQjQ6UejGnK8LPKYvLOrefVdZg8s1in0Eqv3gi9ZesVQkVtAUzeH29FioVbz6rRLOy6YpaNROnuO7jiwkgEW53xUFW42NUtDRetPAlmwx0OtNjletHcTV9EptixMdcXtHFqcQ2kQUrDAu0ONstVST4aKTUu5AVtrf7yxRs/WBpR2HNcG8KL0oL52d5utdnXHVE1rGrVCGbZPQyO9WkTpnTqVbrXVYQm1dwMY3yTURd4VDW3WQVs5S6Q8A3TV/kxH9Mp6ba0UEtxm/5aGEBEtqXWQd4uzJwMIz4tO2kWZxLzpYApU1RtswXQ9D0IXXI5WTzu4vcX3YKugKECZ4FpNA73CuMkHqIWXpVSzr1DNebW0Lx1W6yLv5nwTxD+FytDn54gel1ghrgVioBnf/bqj8Ymen9ZzYl+vGwpY5xCQ8MHXoUtkGsOaNluybT3+okDyWfM4rGTOfORDko+TS2YJUq1qKG3e0FWgSzJkhhbWcNhcWpk+lmi9VT3noMONFZyZL94oQRbyAbgy6dCXCxkjTUiqMTO9+lDCXtDaRMQ2dz8l4VQtDXWplC7bUTto1jk7WUM4FI8FP7J7YJlNPcaR/JdNHQ3F7AFF/RN0Z7Tjd1F0kCnPSXg9+3HlKMuiGx6nr+/wWTbSB9vmAXd5t5GP1anTaBKcxrgqHsVXV3fisaYeMVzGg4VRi3G2epcI4JcGCce2ZiuZHSLDYti4NIFYxgCsmdt0Xr+pLtbKFqNm0Uc9rvzb7A9Zh3qbD3aogAYZf3VD0L4f9fL+yGqSb4TX4DNFu10aKHfXuQ5PhajUqR4Ps6RT/5Qvooe1k2uwMoxVEvKAZN/mA6f3p+aUx3DjcPLsGPN19U7drA0XZzrfyPy2YIEETcZuEE5+MBDdPrCbqLyx1sRfL2lpeNLttYuoHCKg8TwI4uIXLXBkRX/4Z/2xzs2GXl55vuQz1HHu9VEqaHis6Cm8XwFAatT+P3y4GPSvSPJp16a9A0ArSYaKXRjuRJtSP3r8jzcomd3HKtlnkxIl9i+EzPLeqWdJ1UbTeH41OcN/z3i9bKHXtm8bs+QLGeQH46mLumKkLTtRiX7p5NnIf84UIgNikjz+8L2st9iAiXaj6SG+BTbC3V6jilITEcuCmE62z5t7JaSsZCxDGIhE84/cpFduL2rWGEb7buEgdEfLwyZ+6lDFma+H33Watp7XasxstqaNGDgRf5U0BMm74FxLN+XMbqkhIrCaiozYc7obSIbAXQ1RGQLFcj9CDXEtDZxwz6dA9IrmlfUrk2njux/+aZAh66ePRb13dMAte0fvgjkve7B/8rJwS1r3994FW7uU3vl4nKu27J+fHa0yvdonl/nT1M2wWUMMNwOZsXzmvOk9UJsJKup6IDtiIs5t0WwgP5wkL2fruesM/gYy9v5DNujRo0ePHj169OjRo8f/Cf8B86dlfCRvvi4AAAAASUVORK5CYII=;" vertex="1" parent="1">
          <mxGeometry x="520.94" y="160" width="60.94" height="31.2" as="geometry" />
        </mxCell>
        <mxCell id="-hPxuFpVacCTHLu4wbzz-34" value="" style="shape=image;imageAspect=0;aspect=fixed;verticalLabelPosition=bottom;verticalAlign=top;fontFamily=Helvetica;fontSize=11;fontColor=default;image=data:image/png,iVBORw0KGgoAAAANSUhEUgAAANEAAABrCAMAAADetZfOAAAA0GVYSWZJSSoACAAAAAoAAAEEAAEAAADRAAAAAQEEAAEAAABrAAAAAgEDAAMAAACGAAAAEgEDAAEAAAABAAAAGgEFAAEAAACMAAAAGwEFAAEAAACUAAAAKAEDAAEAAAACAAAAMQECAA0AAACcAAAAMgECABQAAACqAAAAaYcEAAEAAAC+AAAAAAAAAAgACAAIAEgAAAABAAAASAAAAAEAAABHSU1QIDIuMTAuMzYAADIwMjQ6MDE6MDUgMjA6NDQ6NDQAAQABoAMAAQAAAAEAAAAAAAAAolvpXAAAAYRpQ0NQSUNDIHByb2ZpbGUAAHicfZE9SMNQFIVPU4siFYd2EHHIUF20i4o41ioUoUKoFVp1MHnpHzRpSFJcHAXXgoM/i1UHF2ddHVwFQfAHxNnBSdFFSrwvKbSI8cLjfZx3z+G9+wChWWWa1ZMANN02M6mkmMuvir2vCCCECMYRkZllzElSGr71dU/dVHdxnuXf92cNqAWLAQGROMEM0ybeIJ7ZtA3O+8RRVpZV4nPiCZMuSPzIdcXjN84llwWeGTWzmXniKLFY6mKli1nZ1IiniWOqplO+kPNY5bzFWavWWfue/IXhgr6yzHVaI0hhEUuQIEJBHRVUYSNOu06KhQydJ338w65fIpdCrgoYORZQgwbZ9YP/we/ZWsWpSS8pnARCL47zMQr07gKthuN8HztO6wQIPgNXesdfawKzn6Q3OlrsCBjcBi6uO5qyB1zuAENPhmzKrhSkJRSLwPsZfVMeiNwC/Wve3NrnOH0AsjSr9A1wcAiMlSh73efdfd1z+7enPb8fdu5yqPAf3zMAAA14aVRYdFhNTDpjb20uYWRvYmUueG1wAAAAAAA8P3hwYWNrZXQgYmVnaW49Iu+7vyIgaWQ9Ilc1TTBNcENlaGlIenJlU3pOVGN6a2M5ZCI/Pgo8eDp4bXBtZXRhIHhtbG5zOng9ImFkb2JlOm5zOm1ldGEvIiB4OnhtcHRrPSJYTVAgQ29yZSA0LjQuMC1FeGl2MiI+CiA8cmRmOlJERiB4bWxuczpyZGY9Imh0dHA6Ly93d3cudzMub3JnLzE5OTkvMDIvMjItcmRmLXN5bnRheC1ucyMiPgogIDxyZGY6RGVzY3JpcHRpb24gcmRmOmFib3V0PSIiCiAgICB4bWxuczp4bXBNTT0iaHR0cDovL25zLmFkb2JlLmNvbS94YXAvMS4wL21tLyIKICAgIHhtbG5zOnN0RXZ0PSJodHRwOi8vbnMuYWRvYmUuY29tL3hhcC8xLjAvc1R5cGUvUmVzb3VyY2VFdmVudCMiCiAgICB4bWxuczpkYz0iaHR0cDovL3B1cmwub3JnL2RjL2VsZW1lbnRzLzEuMS8iCiAgICB4bWxuczpHSU1QPSJodHRwOi8vd3d3LmdpbXAub3JnL3htcC8iCiAgICB4bWxuczp0aWZmPSJodHRwOi8vbnMuYWRvYmUuY29tL3RpZmYvMS4wLyIKICAgIHhtbG5zOnhtcD0iaHR0cDovL25zLmFkb2JlLmNvbS94YXAvMS4wLyIKICAgeG1wTU06RG9jdW1lbnRJRD0iZ2ltcDpkb2NpZDpnaW1wOjEzZTk2MGU5LWE0YTktNDU2MC05ZTg1LWM1ZTMxNzljN2M4YSIKICAgeG1wTU06SW5zdGFuY2VJRD0ieG1wLmlpZDpjYmNlNWI3Ni0wOTRhLTRmNzgtYTA3Yi1lYzdmYWI0YjBkMDUiCiAgIHhtcE1NOk9yaWdpbmFsRG9jdW1lbnRJRD0ieG1wLmRpZDphOTY2ZGRjOC0zMzkyLTRhOTktODA5Yi0xZjQxMTZlMTFhMGQiCiAgIGRjOkZvcm1hdD0iaW1hZ2UvcG5nIgogICBHSU1QOkFQST0iMi4wIgogICBHSU1QOlBsYXRmb3JtPSJMaW51eCIKICAgR0lNUDpUaW1lU3RhbXA9IjE3MDQ0ODM4ODQ1OTI4ODEiCiAgIEdJTVA6VmVyc2lvbj0iMi4xMC4zNiIKICAgdGlmZjpPcmllbnRhdGlvbj0iMSIKICAgeG1wOkNyZWF0b3JUb29sPSJHSU1QIDIuMTAiCiAgIHhtcDpNZXRhZGF0YURhdGU9IjIwMjQ6MDE6MDVUMjA6NDQ6NDQrMDE6MDAiCiAgIHhtcDpNb2RpZnlEYXRlPSIyMDI0OjAxOjA1VDIwOjQ0OjQ0KzAxOjAwIj4KICAgPHhtcE1NOkhpc3Rvcnk+CiAgICA8cmRmOlNlcT4KICAgICA8cmRmOmxpCiAgICAgIHN0RXZ0OmFjdGlvbj0ic2F2ZWQiCiAgICAgIHN0RXZ0OmNoYW5nZWQ9Ii8iCiAgICAgIHN0RXZ0Omluc3RhbmNlSUQ9InhtcC5paWQ6ZGU1MDFmNzUtZTlmZi00Njg1LTliOTUtMGVlZGI3MDkwMTU4IgogICAgICBzdEV2dDpzb2Z0d2FyZUFnZW50PSJHaW1wIDIuMTAgKExpbnV4KSIKICAgICAgc3RFdnQ6d2hlbj0iMjAyNC0wMS0wNVQyMDo0NDo0NCswMTowMCIvPgogICAgPC9yZGY6U2VxPgogICA8L3htcE1NOkhpc3Rvcnk+CiAgPC9yZGY6RGVzY3JpcHRpb24+CiA8L3JkZjpSREY+CjwveDp4bXBtZXRhPgogICAgICAgICAgICAgICAgICAgICAgICAgICAgICAgICAgICAgICAgICAgICAgICAgICAgICAgICAgICAgICAgICAgICAgICAgICAgICAgICAgICAgICAgICAgICAgICAgICAgCiAgICAgICAgICAgICAgICAgICAgICAgICAgICAgICAgICAgICAgICAgICAgICAgICAgICAgICAgICAgICAgICAgICAgICAgICAgICAgICAgICAgICAgICAgICAgICAgICAgICAKICAgICAgICAgICAgICAgICAgICAgICAgICAgICAgICAgICAgICAgICAgICAgICAgICAgICAgICAgICAgICAgICAgICAgICAgICAgICAgICAgICAgICAgICAgICAgICAgICAgIAogICAgICAgICAgICAgICAgICAgICAgICAgICAgICAgICAgICAgICAgICAgICAgICAgICAgICAgICAgICAgICAgICAgICAgICAgICAgICAgICAgICAgICAgICAgICAgICAgICAgCiAgICAgICAgICAgICAgICAgICAgICAgICAgICAgICAgICAgICAgICAgICAgICAgICAgICAgICAgICAgICAgICAgICAgICAgICAgICAgICAgICAgICAgICAgICAgICAgICAgICAKICAgICAgICAgICAgICAgICAgICAgICAgICAgICAgICAgICAgICAgICAgICAgICAgICAgICAgICAgICAgICAgICAgICAgICAgICAgICAgICAgICAgICAgICAgICAgICAgICAgIAogICAgICAgICAgICAgICAgICAgICAgICAgICAgICAgICAgICAgICAgICAgICAgICAgICAgICAgICAgICAgICAgICAgICAgICAgICAgICAgICAgICAgICAgICAgICAgICAgICAgCiAgICAgICAgICAgICAgICAgICAgICAgICAgICAgICAgICAgICAgICAgICAgICAgICAgICAgICAgICAgICAgICAgICAgICAgICAgICAgICAgICAgICAgICAgICAgICAgICAgICAKICAgICAgICAgICAgICAgICAgICAgICAgICAgICAgICAgICAgICAgICAgICAgICAgICAgICAgICAgICAgICAgICAgICAgICAgICAgICAgICAgICAgICAgICAgICAgICAgICAgIAogICAgICAgICAgICAgICAgICAgICAgICAgICAgICAgICAgICAgICAgICAgICAgICAgICAgICAgICAgICAgICAgICAgICAgICAgICAgICAgICAgICAgICAgICAgICAgICAgICAgCiAgICAgICAgICAgICAgICAgICAgICAgICAgICAgICAgICAgICAgICAgICAgICAgICAgICAgICAgICAgICAgICAgICAgICAgICAgICAgICAgICAgICAgICAgICAgICAgICAgICAKICAgICAgICAgICAgICAgICAgICAgICAgICAgICAgICAgICAgICAgICAgICAgICAgICAgICAgICAgICAgICAgICAgICAgICAgICAgICAgICAgICAgICAgICAgICAgICAgICAgIAogICAgICAgICAgICAgICAgICAgICAgICAgICAgICAgICAgICAgICAgICAgICAgICAgICAgICAgICAgICAgICAgICAgICAgICAgICAgICAgICAgICAgICAgICAgICAgICAgICAgCiAgICAgICAgICAgICAgICAgICAgICAgICAgICAgICAgICAgICAgICAgICAgICAgICAgICAgICAgICAgICAgICAgICAgICAgICAgICAgICAgICAgICAgICAgICAgICAgICAgICAKICAgICAgICAgICAgICAgICAgICAgICAgICAgICAgICAgICAgICAgICAgICAgICAgICAgICAgICAgICAgICAgICAgICAgICAgICAgICAgICAgICAgICAgICAgICAgICAgICAgIAogICAgICAgICAgICAgICAgICAgICAgICAgICAgICAgICAgICAgICAgICAgICAgICAgICAgICAgICAgICAgICAgICAgICAgICAgICAgICAgICAgICAgICAgICAgICAgICAgICAgCiAgICAgICAgICAgICAgICAgICAgICAgICAgICAgICAgICAgICAgICAgICAgICAgICAgICAgICAgICAgICAgICAgICAgICAgICAgICAgICAgICAgICAgICAgICAgICAgICAgICAKICAgICAgICAgICAgICAgICAgICAgICAgICAgICAgICAgICAgICAgICAgICAgICAgICAgICAgICAgICAgICAgICAgICAgICAgICAgICAgICAgICAgICAgICAgICAgICAgICAgIAogICAgICAgICAgICAgICAgICAgICAgICAgICAgICAgICAgICAgICAgICAgICAgICAgICAgICAgICAgICAgICAgICAgICAgICAgICAgICAgICAgICAgICAgICAgICAgICAgICAgCiAgICAgICAgICAgICAgICAgICAgICAgICAgICAgICAgICAgICAgICAgICAgICAgICAgICAgICAgICAgICAgICAgICAgICAgICAgICAgICAgICAgICAgICAgICAgICAgICAgICAKICAgICAgICAgICAgICAgICAgICAgICAgICAgCjw/eHBhY2tldCBlbmQ9InciPz5E2ywGAAAAkFBMVEX///8hMlodL1gZLFYAGk0AGEwAH08AFksAHU4TKFQAE0oWKlUPJlMbLlcGIlEAHk9weI5VX3v3+PkAEEkADEian67v8PM9SmvT1tzKzdWrr7u1ucTo6u7BxM1YYn2usr5FUXBmboeOlKV6gZXc3uOGjJ4pOV8AAEQzQWWhprRze5CKkKEACEdATGxhaoRMWHa/7IBbAAAAAWJLR0QAiAUdSAAAAAlwSFlzAAALEwAACxMBAJqcGAAAAAd0SU1FB+gBBRMsLCn08KkAAAbASURBVHja7Vtrd6o6EJUkPAIhKspLURSQo7WV///vrjVBA2ir4FqaXva3ck7T7MxkZvYMDAY9evTo0aNHjx5/GN7CTUepu/D+CJ9wbBoEW5gY5jj8A3ycsQmVEtBcOrITCoCliMAwkNzj/gGlCvAptedFqE7oSMmMJGbkn6+Qbdnny/QlL6EYcRLE8A++QfhPKJaWUc59ztx/ZyJvP+F+l0sbFnRukzIWhAZ7oMoaHPbMzbTZ+clsyJwwkZRRcYoLAAqPlJMfwrHU1whvhEcplvoigRMjuhMe7WjDbDKBuVjl0rinqwUUSRltm5dmebpa9kpSRiNWpKrZpSoyT0+skaSMZpRVPReLrGA9nksmXVVeA42ZKPLGvA4ypRWzPq+CLJqEWZhQLpWwrE7nrC5ijxgqKgtVRZVUTnhbrFwFcuUklGF4nRBdS9pfuKJemYUkJTQ3rxOCk5eU3V6cfuXKdum2ljG7SZUIU+Q20YvsFd2O9VTDNgDAInreLhUmZtUw4GuqInW63b+ks5XoQogCxrbFoY5QhZClRAMnC7IX9R7XqOb4jyvopVbtOW5fWiEsaaO99u8xV3F8Ug3Wr9Wre6MZngB55Iy9vNoVNl4brIPPs7MRisv4ix845WxYzav65rVZhBf7CtQLd5fC0gPNu69SWMurkxcXPAHvrxGeNXZcDVjLe/PqZ4UQmMxfnOhTdqfxmUDZQrxTz7jVNARe32hkfQFALokjYRyHd531Rq/GfZK9mpDDShexv+YZ9/dAR9U4ifPXq6CMnbEh+srXqSLDH7//dlHNZOTrDcaTmVpv3ZTdKHj4NQ3V8qq2HLwBrtnIZ1Uz9mc/HnlUm7aij3cgNHCmt+7RUQjQ6UejGnK8LPKYvLOrefVdZg8s1in0Eqv3gi9ZesVQkVtAUzeH29FioVbz6rRLOy6YpaNROnuO7jiwkgEW53xUFW42NUtDRetPAlmwx0OtNjletHcTV9EptixMdcXtHFqcQ2kQUrDAu0ONstVST4aKTUu5AVtrf7yxRs/WBpR2HNcG8KL0oL52d5utdnXHVE1rGrVCGbZPQyO9WkTpnTqVbrXVYQm1dwMY3yTURd4VDW3WQVs5S6Q8A3TV/kxH9Mp6ba0UEtxm/5aGEBEtqXWQd4uzJwMIz4tO2kWZxLzpYApU1RtswXQ9D0IXXI5WTzu4vcX3YKugKECZ4FpNA73CuMkHqIWXpVSzr1DNebW0Lx1W6yLv5nwTxD+FytDn54gel1ghrgVioBnf/bqj8Ymen9ZzYl+vGwpY5xCQ8MHXoUtkGsOaNluybT3+okDyWfM4rGTOfORDko+TS2YJUq1qKG3e0FWgSzJkhhbWcNhcWpk+lmi9VT3noMONFZyZL94oQRbyAbgy6dCXCxkjTUiqMTO9+lDCXtDaRMQ2dz8l4VQtDXWplC7bUTto1jk7WUM4FI8FP7J7YJlNPcaR/JdNHQ3F7AFF/RN0Z7Tjd1F0kCnPSXg9+3HlKMuiGx6nr+/wWTbSB9vmAXd5t5GP1anTaBKcxrgqHsVXV3fisaYeMVzGg4VRi3G2epcI4JcGCce2ZiuZHSLDYti4NIFYxgCsmdt0Xr+pLtbKFqNm0Uc9rvzb7A9Zh3qbD3aogAYZf3VD0L4f9fL+yGqSb4TX4DNFu10aKHfXuQ5PhajUqR4Ps6RT/5Qvooe1k2uwMoxVEvKAZN/mA6f3p+aUx3DjcPLsGPN19U7drA0XZzrfyPy2YIEETcZuEE5+MBDdPrCbqLyx1sRfL2lpeNLttYuoHCKg8TwI4uIXLXBkRX/4Z/2xzs2GXl55vuQz1HHu9VEqaHis6Cm8XwFAatT+P3y4GPSvSPJp16a9A0ArSYaKXRjuRJtSP3r8jzcomd3HKtlnkxIl9i+EzPLeqWdJ1UbTeH41OcN/z3i9bKHXtm8bs+QLGeQH46mLumKkLTtRiX7p5NnIf84UIgNikjz+8L2st9iAiXaj6SG+BTbC3V6jilITEcuCmE62z5t7JaSsZCxDGIhE84/cpFduL2rWGEb7buEgdEfLwyZ+6lDFma+H33Watp7XasxstqaNGDgRf5U0BMm74FxLN+XMbqkhIrCaiozYc7obSIbAXQ1RGQLFcj9CDXEtDZxwz6dA9IrmlfUrk2njux/+aZAh66ePRb13dMAte0fvgjkve7B/8rJwS1r3994FW7uU3vl4nKu27J+fHa0yvdonl/nT1M2wWUMMNwOZsXzmvOk9UJsJKup6IDtiIs5t0WwgP5wkL2fruesM/gYy9v5DNujRo0ePHj169OjRo8f/Cf8B86dlfCRvvi4AAAAASUVORK5CYII=;" vertex="1" parent="1">
          <mxGeometry x="450.00000000000006" y="201.8" width="60.94" height="31.2" as="geometry" />
        </mxCell>
      </root>
    </mxGraphModel>
  </diagram>
</mxfile>
